<?xml version="1.0" encoding="utf-8"?>
<!-- Generator: Adobe Illustrator 21.0.2, SVG Export Plug-In . SVG Version: 6.00 Build 0)  -->
<svg version="1.1" id="Layer_1" xmlns="http://www.w3.org/2000/svg" xmlns:xlink="http://www.w3.org/1999/xlink" x="0px" y="0px"
	 viewBox="0 0 446.7 133.3" style="enable-background:new 0 0 446.7 133.3;" xml:space="preserve">
<style type="text/css">
	.st0{fill:#FF6300;}
	.st1{fill:none;stroke:#FFFFFF;stroke-width:10;stroke-linecap:round;stroke-linejoin:round;}
	.st2{enable-background:new    ;}
	.st3{fill:#28466F;}
</style>
<title>Asset 5</title>
<g id="Layer_2">
	<g id="Layer_1-2">
		<circle class="st0" cx="66.7" cy="66.6" r="66.7"/>
		<path class="st1" d="M108.7,71.4c0.4,23.2-18.2,42.4-41.4,42.7C44.1,114.5,24.9,96,24.6,72.7c0-0.4,0-0.9,0-1.3"/>
		<g class="st2">
			<path class="st3" d="M215.2,46.8L211,78.9c-0.3,2.3-0.5,4.5-0.6,6.6c3.2,0.2,6.1,0.8,8.5,1.5c-0.2,2-0.6,3.8-1.3,5.6
				c-3.7-0.2-9-0.2-14.4-0.2c-5.9,0-10.8,0.2-14.6,0.2c-0.3-1.8-0.2-3.8,0-5.6c3-0.2,6.1-0.8,9.3-1.5c0.5-1.5,0.7-3.2,1-4.9
				l4.4-33.8h-8.7c-0.9,3.4-1.8,7.1-2.5,10.7c-2.1,0.5-4.3,0.5-7.1,0c-0.2-5,0-9.9,1.3-17.6l1-1c4.6,0.2,12.4,0.2,17.6,0.2h10.5
				c5.3,0,13,0,17.6-0.2l1,1c-0.8,7.7-1.8,12.5-3.3,17.6c-2.9,0.5-5.1,0.5-7.1,0c0.3-3.6,0.3-7.3,0.2-10.7H215.2z"/>
		</g>
		<g class="st2">
			<path class="st3" d="M242.6,61c-2.3-0.6-4.5-0.8-6.8-0.8c-0.3-1.4-0.5-3,0.1-4.8c2.6-1.5,6.1-2.5,10.9-2.5c5,0,7.3,2.2,7.3,5.8
				c0,0.8,0,1.4-0.2,2.4l-3,23.7c2.3-0.6,4.5-1.4,6.5-2.3c1.3,0.9,2.4,2.8,2.4,4.5c-3.1,3.2-9.9,6.5-15.2,6.5
				c-3.7,0-5.5-1.7-5.5-5.5c0-1.6,0.1-3,0.3-4.4C240.2,77.7,241.1,72,242.6,61z M242.3,42.4c0-3.7,3.4-8.4,7.4-8.4
				c3.1,0,6.5,2.3,6.5,5.8c0,3.9-3.4,8.1-7.5,8.3C245.7,48.1,242.3,45.6,242.3,42.4z"/>
			<path class="st3" d="M268.8,61c-2.3-0.6-4.5-0.8-6.8-0.8c-0.3-1.4-0.5-3,0.1-4.8c2.6-1.5,6.1-2.5,10.9-2.5c5,0,7.3,2.2,7.3,5.8
				v0.6c4.5-4.5,9.5-6.7,14.8-6.7c5.6,0,7.8,3.8,7.8,8.1c0,5.1-1.8,14.8-3.8,24.2c2.2-0.3,4.5-1,6.5-1.8c1.4,1,2.2,2.5,2.4,4.5
				c-3,2.8-8.7,5.9-15,5.9c-4.4,0-6.1-2.3-6.1-4.9c0-0.8,0.1-1.7,0.2-2.6c1.8-8.4,3.8-18.4,3.8-20.5c0-2.4-0.2-4.1-1.2-4.8
				c-3.7,1.2-6.9,3.2-10.5,6.6c-0.9,7.5-1.8,15-2.6,22.9c-0.2,2.2-6.2,3-11.7,2.6l-1-1c1.7-9.1,2.9-17.2,4-25.6L268.8,61z"/>
		</g>
		<g class="st2">
			<path class="st3" d="M359,46.8l-4.2,32.1c-0.3,2.3-0.5,4.5-0.6,6.6c3.2,0.2,6.1,0.8,8.5,1.5c-0.2,2-0.6,3.8-1.3,5.6
				c-3.7-0.2-9-0.2-14.4-0.2c-5.9,0-10.8,0.2-14.6,0.2c-0.3-1.8-0.2-3.8,0-5.6c3-0.2,6.1-0.8,9.3-1.5c0.5-1.5,0.7-3.2,1-4.9
				l4.4-33.8h-8.7c-0.9,3.4-1.8,7.1-2.5,10.7c-2.1,0.5-4.3,0.5-7.1,0c-0.2-5,0-9.9,1.3-17.6l1-1c4.6,0.2,12.4,0.2,17.6,0.2h10.5
				c5.3,0,13,0,17.6-0.2l1,1c-0.8,7.7-1.8,12.5-3.3,17.6c-2.9,0.5-5.1,0.5-7.1,0c0.3-3.6,0.3-7.3,0.2-10.7H359z"/>
		</g>
		<g class="st2">
			<path class="st3" d="M376.7,77.7c0-14.1,8.4-25.1,22.7-25.1c9.3,0,12.7,9,12.7,16c0,14.1-8.5,25.1-23,25.1
				C380.3,93.8,376.7,84.8,376.7,77.7z M409.2,47.1c-0.9,1.4-3.1,2.6-5.1,2.7l-6-7l-8.9,6.9c-1.7-0.5-3-1.7-3.4-3.5l9.7-10.9
				c1.4-1.8,7.9-2.9,8.5-1.4L409.2,47.1z M397,85.3c1.7-2.2,3.4-7.7,3.4-13.2c0-7.9-1.7-11.7-5.1-11.7c-1.1,0-2.5,0.2-3.4,0.7
				c-1.7,2.2-3.4,7.4-3.4,13.3c0,7.8,1.5,11.7,5.2,11.7C394.8,86,396.1,85.7,397,85.3z M428,27.4c-2.6,3.7-12.1,9.4-17.1,10.1
				c-1.7-1.5-2.6-3.3-2.2-5.1c4.5-3,9.8-8.2,13.4-12.8C427.9,21.7,429.3,25.6,428,27.4z"/>
			<path class="st3" d="M424.1,53.7l0.9-8.5c0.2-2.2,5.8-3,11.3-2.6l1,1c-0.6,3.5-1.2,6.9-1.7,10.1c4,0,7.7,0.2,10.9,0.8
				c0,2.7-0.4,5-1.3,7h-10.7c-0.6,4.2-1.1,8.5-1.6,12.7l-1.3,10.1c3.5-0.9,6.5-1.9,9.3-3.4c1.6,1.3,2.4,2.7,2.7,4.9
				c-3.8,3.3-10.5,7.6-17.7,7.6c-4.7,0-6.1-2.3-6.1-4.9c0-0.8,0.2-2.2,0.4-4c0.9-6.5,1.5-11.7,2.3-18.4c0.2-1.5,0.3-3,0.6-4.6h-7.4
				c0-3.1,0.7-7.8,2-7.8H424.1z"/>
		</g>
	</g>
</g>
</svg>
